<svg width="9" height="12" viewBox="0 0 9 12" fill="none" xmlns="http://www.w3.org/2000/svg">
<path d="M8.05752 7.47124C8.05752 9.63677 6.6943 11 4.52876 11C2.36323 11 1 9.63677 1 7.47124C1 5.1474 3.52968 2.01023 4.30552 1.1028C4.33313 1.07056 4.36738 1.04468 4.40594 1.02693C4.4445 1.00919 4.48644 1 4.52889 1C4.57133 1 4.61327 1.00919 4.65183 1.02693C4.69039 1.04468 4.72464 1.07056 4.75225 1.1028C5.52784 2.01023 8.05752 5.1474 8.05752 7.47124Z" stroke="#D9D9D9" stroke-miterlimit="10"/>
<path d="M6.68523 7.66727C6.68523 8.13521 6.49934 8.58399 6.16846 8.91487C5.83757 9.24576 5.3888 9.43165 4.92085 9.43165" stroke="#D9D9D9" stroke-linecap="round" stroke-linejoin="round"/>
</svg>
