<svg width="10" height="12" viewBox="0 0 10 12" fill="none" xmlns="http://www.w3.org/2000/svg">
<path d="M4.80829 1C2.7058 1 1 2.47579 1 4.29343C1 6.38488 3.53886 9.69923 4.4711 10.844C4.50979 10.8923 4.56051 10.9316 4.61911 10.9588C4.67771 10.9859 4.74254 11 4.80829 11C4.87404 11 4.93887 10.9859 4.99747 10.9588C5.05607 10.9316 5.10679 10.8923 5.14548 10.844C6.07772 9.69971 8.61658 6.38657 8.61658 4.29343C8.61658 2.47579 6.91078 1 4.80829 1Z" stroke="#D9D9D9" stroke-linecap="round" stroke-linejoin="round"/>
<path d="M4.80829 5.61576C5.50938 5.61576 6.07772 5.09914 6.07772 4.46186C6.07772 3.82457 5.50938 3.30795 4.80829 3.30795C4.10721 3.30795 3.53886 3.82457 3.53886 4.46186C3.53886 5.09914 4.10721 5.61576 4.80829 5.61576Z" stroke="#D9D9D9" stroke-linecap="round" stroke-linejoin="round"/>
</svg>
